<mxfile host="app.diagrams.net" agent="Mozilla/5.0 (Windows NT 10.0; Win64; x64) AppleWebKit/537.36 (KHTML, like Gecko) Chrome/129.0.0.0 Safari/537.36" version="24.7.16">
  <diagram name="Page-1" id="hC5CcUB9Q6UFM16KFXB-">
    <mxGraphModel dx="683" dy="371" grid="1" gridSize="10" guides="1" tooltips="1" connect="1" arrows="1" fold="1" page="1" pageScale="1" pageWidth="827" pageHeight="1169" math="0" shadow="0">
      <root>
        <mxCell id="0" />
        <mxCell id="1" parent="0" />
        <mxCell id="ujk1NobRQ6kVuBGJd37e-1" value="CICLISTA" style="rounded=0;whiteSpace=wrap;html=1;" vertex="1" parent="1">
          <mxGeometry x="60" y="330" width="120" height="60" as="geometry" />
        </mxCell>
        <mxCell id="ujk1NobRQ6kVuBGJd37e-2" value="EQUIPO" style="rounded=0;whiteSpace=wrap;html=1;" vertex="1" parent="1">
          <mxGeometry x="390" y="330" width="120" height="60" as="geometry" />
        </mxCell>
        <mxCell id="ujk1NobRQ6kVuBGJd37e-3" value="PRUEBA" style="rounded=0;whiteSpace=wrap;html=1;" vertex="1" parent="1">
          <mxGeometry x="740" y="330" width="120" height="60" as="geometry" />
        </mxCell>
        <mxCell id="ujk1NobRQ6kVuBGJd37e-4" value="" style="endArrow=oval;html=1;rounded=0;endFill=0;entryX=0.15;entryY=0.967;entryDx=0;entryDy=0;entryPerimeter=0;" edge="1" parent="1" target="ujk1NobRQ6kVuBGJd37e-12">
          <mxGeometry width="50" height="50" relative="1" as="geometry">
            <mxPoint x="70" y="330" as="sourcePoint" />
            <mxPoint x="70" y="280" as="targetPoint" />
          </mxGeometry>
        </mxCell>
        <mxCell id="ujk1NobRQ6kVuBGJd37e-5" value="participa" style="rhombus;whiteSpace=wrap;html=1;" vertex="1" parent="1">
          <mxGeometry x="600" y="330" width="80" height="60" as="geometry" />
        </mxCell>
        <mxCell id="ujk1NobRQ6kVuBGJd37e-6" value="" style="endArrow=none;html=1;rounded=0;exitX=0;exitY=0.5;exitDx=0;exitDy=0;entryX=1;entryY=0.5;entryDx=0;entryDy=0;" edge="1" parent="1" source="ujk1NobRQ6kVuBGJd37e-5" target="ujk1NobRQ6kVuBGJd37e-2">
          <mxGeometry width="50" height="50" relative="1" as="geometry">
            <mxPoint x="590" y="360" as="sourcePoint" />
            <mxPoint x="440" y="380" as="targetPoint" />
          </mxGeometry>
        </mxCell>
        <mxCell id="ujk1NobRQ6kVuBGJd37e-7" value="" style="endArrow=none;html=1;rounded=0;exitX=0;exitY=0.5;exitDx=0;exitDy=0;entryX=1;entryY=0.5;entryDx=0;entryDy=0;" edge="1" parent="1" source="ujk1NobRQ6kVuBGJd37e-3" target="ujk1NobRQ6kVuBGJd37e-5">
          <mxGeometry width="50" height="50" relative="1" as="geometry">
            <mxPoint x="770" y="380" as="sourcePoint" />
            <mxPoint x="680" y="380" as="targetPoint" />
          </mxGeometry>
        </mxCell>
        <mxCell id="ujk1NobRQ6kVuBGJd37e-8" value="" style="endArrow=oval;html=1;rounded=0;exitX=1;exitY=0;exitDx=0;exitDy=0;endFill=0;entryX=0.56;entryY=1.033;entryDx=0;entryDy=0;entryPerimeter=0;" edge="1" parent="1" source="ujk1NobRQ6kVuBGJd37e-9" target="ujk1NobRQ6kVuBGJd37e-17">
          <mxGeometry width="50" height="50" relative="1" as="geometry">
            <mxPoint x="330" y="301" as="sourcePoint" />
            <mxPoint x="330" y="310" as="targetPoint" />
          </mxGeometry>
        </mxCell>
        <mxCell id="ujk1NobRQ6kVuBGJd37e-9" value="pertenece" style="rhombus;whiteSpace=wrap;html=1;" vertex="1" parent="1">
          <mxGeometry x="250" y="330" width="80" height="60" as="geometry" />
        </mxCell>
        <mxCell id="ujk1NobRQ6kVuBGJd37e-10" value="" style="endArrow=none;html=1;rounded=0;exitX=1;exitY=0.5;exitDx=0;exitDy=0;entryX=0;entryY=0.5;entryDx=0;entryDy=0;" edge="1" parent="1" source="ujk1NobRQ6kVuBGJd37e-1" target="ujk1NobRQ6kVuBGJd37e-9">
          <mxGeometry width="50" height="50" relative="1" as="geometry">
            <mxPoint x="390" y="430" as="sourcePoint" />
            <mxPoint x="440" y="380" as="targetPoint" />
          </mxGeometry>
        </mxCell>
        <mxCell id="ujk1NobRQ6kVuBGJd37e-11" value="" style="endArrow=none;html=1;rounded=0;exitX=1;exitY=0.5;exitDx=0;exitDy=0;entryX=0;entryY=0.5;entryDx=0;entryDy=0;" edge="1" parent="1" source="ujk1NobRQ6kVuBGJd37e-9" target="ujk1NobRQ6kVuBGJd37e-2">
          <mxGeometry width="50" height="50" relative="1" as="geometry">
            <mxPoint x="190" y="370" as="sourcePoint" />
            <mxPoint x="260" y="370" as="targetPoint" />
          </mxGeometry>
        </mxCell>
        <mxCell id="ujk1NobRQ6kVuBGJd37e-12" value="nombre" style="text;html=1;align=center;verticalAlign=middle;resizable=0;points=[];autosize=1;strokeColor=none;fillColor=none;" vertex="1" parent="1">
          <mxGeometry x="60" y="210" width="60" height="30" as="geometry" />
        </mxCell>
        <mxCell id="ujk1NobRQ6kVuBGJd37e-13" value="nacionalidad" style="text;html=1;align=center;verticalAlign=middle;resizable=0;points=[];autosize=1;strokeColor=none;fillColor=none;" vertex="1" parent="1">
          <mxGeometry x="66" y="240" width="90" height="30" as="geometry" />
        </mxCell>
        <mxCell id="ujk1NobRQ6kVuBGJd37e-14" value="f_nacimiento" style="text;html=1;align=center;verticalAlign=middle;resizable=0;points=[];autosize=1;strokeColor=none;fillColor=none;" vertex="1" parent="1">
          <mxGeometry x="75" y="271" width="90" height="30" as="geometry" />
        </mxCell>
        <mxCell id="ujk1NobRQ6kVuBGJd37e-15" value="" style="endArrow=oval;html=1;rounded=0;endFill=0;" edge="1" parent="1">
          <mxGeometry width="50" height="50" relative="1" as="geometry">
            <mxPoint x="80" y="330" as="sourcePoint" />
            <mxPoint x="80" y="270" as="targetPoint" />
          </mxGeometry>
        </mxCell>
        <mxCell id="ujk1NobRQ6kVuBGJd37e-16" value="" style="endArrow=oval;html=1;rounded=0;endFill=0;" edge="1" parent="1">
          <mxGeometry width="50" height="50" relative="1" as="geometry">
            <mxPoint x="90" y="330" as="sourcePoint" />
            <mxPoint x="90" y="300" as="targetPoint" />
            <Array as="points">
              <mxPoint x="90" y="330" />
            </Array>
          </mxGeometry>
        </mxCell>
        <mxCell id="ujk1NobRQ6kVuBGJd37e-17" value="f_fin_contrato" style="text;html=1;align=center;verticalAlign=middle;resizable=0;points=[];autosize=1;strokeColor=none;fillColor=none;" vertex="1" parent="1">
          <mxGeometry x="260" y="252" width="100" height="30" as="geometry" />
        </mxCell>
        <mxCell id="ujk1NobRQ6kVuBGJd37e-18" value="" style="endArrow=oval;html=1;rounded=0;exitX=0;exitY=0;exitDx=0;exitDy=0;endFill=0;" edge="1" parent="1" source="ujk1NobRQ6kVuBGJd37e-9">
          <mxGeometry width="50" height="50" relative="1" as="geometry">
            <mxPoint x="320" y="355" as="sourcePoint" />
            <mxPoint x="260" y="310" as="targetPoint" />
          </mxGeometry>
        </mxCell>
        <mxCell id="ujk1NobRQ6kVuBGJd37e-19" value="f_incio_contrato" style="text;html=1;align=center;verticalAlign=middle;resizable=0;points=[];autosize=1;strokeColor=none;fillColor=none;" vertex="1" parent="1">
          <mxGeometry x="205" y="282" width="110" height="30" as="geometry" />
        </mxCell>
        <mxCell id="ujk1NobRQ6kVuBGJd37e-20" value="" style="endArrow=oval;html=1;rounded=0;exitX=1;exitY=0;exitDx=0;exitDy=0;endFill=1;" edge="1" parent="1">
          <mxGeometry width="50" height="50" relative="1" as="geometry">
            <mxPoint x="401" y="330" as="sourcePoint" />
            <mxPoint x="401" y="240" as="targetPoint" />
          </mxGeometry>
        </mxCell>
        <mxCell id="ujk1NobRQ6kVuBGJd37e-21" value="nombre" style="text;html=1;align=center;verticalAlign=middle;resizable=0;points=[];autosize=1;strokeColor=none;fillColor=none;" vertex="1" parent="1">
          <mxGeometry x="388" y="210" width="60" height="30" as="geometry" />
        </mxCell>
        <mxCell id="ujk1NobRQ6kVuBGJd37e-22" value="nacionalidad" style="text;html=1;align=center;verticalAlign=middle;resizable=0;points=[];autosize=1;strokeColor=none;fillColor=none;" vertex="1" parent="1">
          <mxGeometry x="397" y="243" width="90" height="30" as="geometry" />
        </mxCell>
        <mxCell id="ujk1NobRQ6kVuBGJd37e-23" value="" style="endArrow=oval;html=1;rounded=0;endFill=1;" edge="1" parent="1">
          <mxGeometry width="50" height="50" relative="1" as="geometry">
            <mxPoint x="60" y="330" as="sourcePoint" />
            <mxPoint x="59" y="200" as="targetPoint" />
          </mxGeometry>
        </mxCell>
        <mxCell id="ujk1NobRQ6kVuBGJd37e-24" value="id_ciclista" style="text;html=1;align=center;verticalAlign=middle;resizable=0;points=[];autosize=1;strokeColor=none;fillColor=none;" vertex="1" parent="1">
          <mxGeometry x="40" y="170" width="80" height="30" as="geometry" />
        </mxCell>
        <mxCell id="ujk1NobRQ6kVuBGJd37e-27" value="" style="endArrow=oval;html=1;rounded=0;endFill=0;exitX=0.181;exitY=-0.009;exitDx=0;exitDy=0;exitPerimeter=0;entryX=0.1;entryY=1.033;entryDx=0;entryDy=0;entryPerimeter=0;" edge="1" parent="1" source="ujk1NobRQ6kVuBGJd37e-2">
          <mxGeometry width="50" height="50" relative="1" as="geometry">
            <mxPoint x="409.96000000000004" y="328.02" as="sourcePoint" />
            <mxPoint x="412" y="271.99" as="targetPoint" />
          </mxGeometry>
        </mxCell>
        <mxCell id="ujk1NobRQ6kVuBGJd37e-28" value="nom_director" style="text;html=1;align=center;verticalAlign=middle;resizable=0;points=[];autosize=1;strokeColor=none;fillColor=none;" vertex="1" parent="1">
          <mxGeometry x="411" y="270" width="90" height="30" as="geometry" />
        </mxCell>
        <mxCell id="ujk1NobRQ6kVuBGJd37e-29" value="" style="endArrow=oval;html=1;rounded=0;endFill=0;entryX=0.1;entryY=1.033;entryDx=0;entryDy=0;entryPerimeter=0;" edge="1" parent="1">
          <mxGeometry width="50" height="50" relative="1" as="geometry">
            <mxPoint x="426" y="330" as="sourcePoint" />
            <mxPoint x="426" y="298" as="targetPoint" />
          </mxGeometry>
        </mxCell>
        <mxCell id="ujk1NobRQ6kVuBGJd37e-30" value="nombre" style="text;html=1;align=center;verticalAlign=middle;resizable=0;points=[];autosize=1;strokeColor=none;fillColor=none;" vertex="1" parent="1">
          <mxGeometry x="741" y="220" width="60" height="30" as="geometry" />
        </mxCell>
        <mxCell id="ujk1NobRQ6kVuBGJd37e-31" value="" style="endArrow=oval;html=1;rounded=0;endFill=1;exitX=0.181;exitY=-0.009;exitDx=0;exitDy=0;exitPerimeter=0;entryX=0.22;entryY=0.967;entryDx=0;entryDy=0;entryPerimeter=0;" edge="1" parent="1" target="ujk1NobRQ6kVuBGJd37e-30">
          <mxGeometry width="50" height="50" relative="1" as="geometry">
            <mxPoint x="755" y="329" as="sourcePoint" />
            <mxPoint x="755" y="259" as="targetPoint" />
          </mxGeometry>
        </mxCell>
        <mxCell id="ujk1NobRQ6kVuBGJd37e-32" value="ano_edicion" style="text;html=1;align=center;verticalAlign=middle;resizable=0;points=[];autosize=1;strokeColor=none;fillColor=none;" vertex="1" parent="1">
          <mxGeometry x="751" y="241" width="90" height="30" as="geometry" />
        </mxCell>
        <mxCell id="ujk1NobRQ6kVuBGJd37e-33" value="" style="endArrow=oval;html=1;rounded=0;endFill=1;entryX=0;entryY=0.014;entryDx=0;entryDy=0;entryPerimeter=0;" edge="1" parent="1" target="ujk1NobRQ6kVuBGJd37e-34">
          <mxGeometry width="50" height="50" relative="1" as="geometry">
            <mxPoint x="769" y="330" as="sourcePoint" />
            <mxPoint x="766.5600000000002" y="296.1300000000001" as="targetPoint" />
          </mxGeometry>
        </mxCell>
        <mxCell id="ujk1NobRQ6kVuBGJd37e-34" value="km_totales" style="text;html=1;align=center;verticalAlign=middle;resizable=0;points=[];autosize=1;strokeColor=none;fillColor=none;" vertex="1" parent="1">
          <mxGeometry x="767" y="268" width="80" height="30" as="geometry" />
        </mxCell>
        <mxCell id="ujk1NobRQ6kVuBGJd37e-35" value="" style="endArrow=oval;html=1;rounded=0;endFill=0;exitX=0.181;exitY=-0.009;exitDx=0;exitDy=0;exitPerimeter=0;" edge="1" parent="1">
          <mxGeometry width="50" height="50" relative="1" as="geometry">
            <mxPoint x="780" y="330.01" as="sourcePoint" />
            <mxPoint x="780" y="300" as="targetPoint" />
          </mxGeometry>
        </mxCell>
        <mxCell id="ujk1NobRQ6kVuBGJd37e-36" value="" style="endArrow=oval;html=1;rounded=0;exitX=1;exitY=0;exitDx=0;exitDy=0;endFill=0;entryX=0.56;entryY=1.033;entryDx=0;entryDy=0;entryPerimeter=0;" edge="1" parent="1" target="ujk1NobRQ6kVuBGJd37e-37">
          <mxGeometry width="50" height="50" relative="1" as="geometry">
            <mxPoint x="660" y="345" as="sourcePoint" />
            <mxPoint x="680" y="310" as="targetPoint" />
          </mxGeometry>
        </mxCell>
        <mxCell id="ujk1NobRQ6kVuBGJd37e-37" value="f_fin_contrato" style="text;html=1;align=center;verticalAlign=middle;resizable=0;points=[];autosize=1;strokeColor=none;fillColor=none;" vertex="1" parent="1">
          <mxGeometry x="610" y="252" width="100" height="30" as="geometry" />
        </mxCell>
        <mxCell id="ujk1NobRQ6kVuBGJd37e-38" value="" style="endArrow=oval;html=1;rounded=0;endFill=0;exitX=0.181;exitY=-0.009;exitDx=0;exitDy=0;exitPerimeter=0;" edge="1" parent="1">
          <mxGeometry width="50" height="50" relative="1" as="geometry">
            <mxPoint x="789" y="331.01" as="sourcePoint" />
            <mxPoint x="789" y="301" as="targetPoint" />
            <Array as="points">
              <mxPoint x="789" y="321" />
            </Array>
          </mxGeometry>
        </mxCell>
        <mxCell id="ujk1NobRQ6kVuBGJd37e-39" value="etapa" style="text;html=1;align=center;verticalAlign=middle;resizable=0;points=[];autosize=1;strokeColor=none;fillColor=none;" vertex="1" parent="1">
          <mxGeometry x="786" y="286" width="50" height="30" as="geometry" />
        </mxCell>
        <mxCell id="ujk1NobRQ6kVuBGJd37e-40" value="(1,M)" style="text;html=1;align=center;verticalAlign=middle;resizable=0;points=[];autosize=1;strokeColor=none;fillColor=none;" vertex="1" parent="1">
          <mxGeometry x="130" y="390" width="50" height="30" as="geometry" />
        </mxCell>
        <mxCell id="ujk1NobRQ6kVuBGJd37e-41" value="(1,1)" style="text;html=1;align=center;verticalAlign=middle;resizable=0;points=[];autosize=1;strokeColor=none;fillColor=none;" vertex="1" parent="1">
          <mxGeometry x="376" y="390" width="50" height="30" as="geometry" />
        </mxCell>
        <mxCell id="ujk1NobRQ6kVuBGJd37e-42" value="(1,Q)" style="text;html=1;align=center;verticalAlign=middle;resizable=0;points=[];autosize=1;strokeColor=none;fillColor=none;" vertex="1" parent="1">
          <mxGeometry x="736" y="390" width="50" height="30" as="geometry" />
        </mxCell>
        <mxCell id="ujk1NobRQ6kVuBGJd37e-43" value="(0,S)" style="text;html=1;align=center;verticalAlign=middle;resizable=0;points=[];autosize=1;strokeColor=none;fillColor=none;" vertex="1" parent="1">
          <mxGeometry x="473" y="388" width="50" height="30" as="geometry" />
        </mxCell>
        <mxCell id="ujk1NobRQ6kVuBGJd37e-44" value="(1,M)" style="text;html=1;align=center;verticalAlign=middle;resizable=0;points=[];autosize=1;strokeColor=none;fillColor=none;" vertex="1" parent="1">
          <mxGeometry x="265" y="390" width="50" height="30" as="geometry" />
        </mxCell>
      </root>
    </mxGraphModel>
  </diagram>
</mxfile>
